HIERARCHY
ROOT ui
{
	 OFFSET 0 0 0
	 CHANNELS 3 XPosition YPosition Z Position
	 EndSite
	 {
	 OFFSET 0 -1 0
	 }
}
ROOT li
{
	 OFFSET 0 0 0
	 CHANNELS 3 XPosition YPosition Z Position
	 EndSite
	 {
	 OFFSET 0 -1 0
	 }
}
ROOT ul
{
	 OFFSET 0 0 0
	 CHANNELS 3 XPosition YPosition Z Position
	 EndSite
	 {
	 OFFSET 0 -1 0
	 }
}
ROOT ll
{
	 OFFSET 0 0 0
	 CHANNELS 3 XPosition YPosition Z Position
	 EndSite
	 {
	 OFFSET 0 -1 0
	 }
}
ROOT tt
{
	 OFFSET 0 0 0
	 CHANNELS 3 XPosition YPosition Z Position
	 EndSite
	 {
	 OFFSET 0 -1 0
	 }
}
ROOT tb
{
	 OFFSET 0 0 0
	 CHANNELS 3 XPosition YPosition Z Position
	 EndSite
	 {
	 OFFSET 0 -1 0
	 }
}
ROOT td
{
	 OFFSET 0 0 0
	 CHANNELS 3 XPosition YPosition Z Position
	 EndSite
	 {
	 OFFSET 0 -1 0
	 }
}
ROOT v
{
	 OFFSET 0 0 0
	 CHANNELS 3 XPosition YPosition Z Position
	 EndSite
	 {
	 OFFSET 0 -1 0
	 }
}
ROOT bn
{
	 OFFSET 0 0 0
	 CHANNELS 3 XPosition YPosition Z Position
	 EndSite
	 {
	 OFFSET 0 -1 0
	 }
}
MOTION
Frames: 32
Frame Time: 0.002
-0.00438906717300415	-0.0030189599990844726	0		0.45711087036132814	-2.527236328125	0		-0.8236979370117188	0.3023022155761719	0		-0.4793684997558594	-2.688888671875	0		1.621658203125	-0.6775516967773437	0		3.01703076171875	-0.6419983520507813	0		4.28398681640625	-0.316287841796875	0		5.79295849609375	0.23427261352539064	0		-0.08911656188964844	5.968974609375	0		
-2.625510096549988E-4	9.926390051841736E-4	0		0.4452170715332031	-2.52508251953125	0		-0.8895325317382813	0.310939208984375	0		-0.5140653076171875	-2.664529296875	0		1.6308460693359375	-0.6665869750976563	0		3.05700341796875	-0.6553109741210937	0		4.29490771484375	-0.33534304809570314	0		5.8110400390625	0.23315235900878906	0		-0.0719385986328125	5.9778701171875	0		
0.0038707718849182128	0.004012195110321045	0		0.49538037109375	-2.518474365234375	0		-0.8134284057617187	0.3103177490234375	0		-0.4778213195800781	-2.648794921875	0		1.6290411376953124	-0.6565166625976563	0		3.01210205078125	-0.6558587036132812	0		4.2800947265625	-0.32616079711914064	0		5.8062275390625	0.24224305725097656	0		-0.08791129302978516	5.96806884765625	0		
-3.488900139927864E-5	0.0011127729415893555	0		0.4655064392089844	-2.517142822265625	0		-0.8233778076171875	0.30247369384765627	0		-0.5044546508789063	-2.6204892578125	0		1.620178955078125	-0.6543748779296875	0		3.011078857421875	-0.6717903442382812	0		4.2940625	-0.34322882080078126	0		5.80227783203125	0.234332275390625	0		-0.08876950073242187	5.969142578125	0		
-0.003936945915222168	-0.002776150941848755	0		0.4846773071289063	-2.51223876953125	0		-0.8232435302734376	0.302551025390625	0		-0.4982656555175781	-2.613466796875	0		1.6172840576171874	-0.6572769775390624	0		3.000148681640625	-0.6786244506835938	0		4.2740888671875	-0.35498565673828125	0		5.802412109375	0.23439251708984374	0		-0.08961163330078124	5.97022705078125	0		
2.429630011320114E-4	0.001274448037147522	0		0.43980633544921877	-2.512751708984375	0		-0.8230982055664062	0.30264016723632814	0		-0.4920764770507812	-2.607432373046875	0		1.6065250244140625	-0.6460979614257812	0		3.02815576171875	-0.6937972412109376	0		4.28317822265625	-0.3609932556152344	0		5.80255712890625	0.2344600830078125	0		-0.08845680999755859	5.9693046875	0		
-0.0036387391090393064	-0.0025909938812255858	0		0.4650654296875	-2.49987890625	0		-0.822943115234375	0.30274209594726564	0		-0.5178067626953125	-2.59310009765625	0		1.61757763671875	-0.657103515625	0		3.00044189453125	-0.6784609375	0		4.28333056640625	-0.36091156005859376	0		5.81578271484375	0.24241929626464845	0		-0.08827931213378906	5.96940380859375	0		
0.00458595609664917	0.004449112892150879	0		0.4323517150878906	-2.484474609375	0		-0.8127081909179688	0.31076806640625	0		-0.4705867004394531	-2.58540625	0		1.6068358154296876	-0.6459011840820312	0		3.0124755859375	-0.6924696655273438	0		4.27233984375	-0.377720458984375	0		5.8249462890625	0.2424237976074219	0		-0.07199152374267578	5.98037255859375	0		
7.294570207595825E-4	0.0016110639572143556	0		0.4864440612792969	-2.49183349609375	0		-0.8226075439453125	0.3029881896972656	0		-0.54927490234375	-2.56757177734375	0		1.600940185546875	-0.6527296142578125	0		3.01264208984375	-0.6923594360351563	0		4.26353515625	-0.37453643798828123	0		5.8210458984375	0.23455538940429688	0		-0.08788772583007813	5.969642578125	0		
9.061970114707947E-4	0.0017518630027770995	0		0.42172525024414065	-2.4781142578125	0		-0.8224290771484375	0.3031337890625	0		-0.4800263366699219	-2.558045654296875	0		1.59213134765625	-0.6505176391601563	0		3.005734619140625	-0.7011731567382813	0		4.26960205078125	-0.3864736633300781	0		5.81630517578125	0.24370672607421875	0		-0.08767626953125	5.96978369140625	0		
-0.0029475929737091066	-0.0020565400123596193	0		0.460809326171875	-2.487310302734375	0		-0.8972422485351562	0.30396640014648435	0		-0.5467504272460938	-2.545287353515625	0		1.5892823486328125	-0.6533450927734376	0		2.994849853515625	-0.7079376831054688	0		4.2537373046875	-0.3912014465332031	0		5.82156005859375	0.2517805480957031	0		-0.08745675659179687	5.96993994140625	0		
0.0012736179828643798	0.0020777220726013183	0		0.4370509338378906	-2.478928466796875	0		-0.8920907592773437	0.3000979919433594	0		-0.5334658813476563	-2.532230712890625	0		1.5924903564453126	-0.6502124633789063	0		3.029975341796875	-0.7141008911132812	0		4.25696484375	-0.386086669921875	0		5.84380908203125	0.2587144775390625	0		-0.069160400390625	5.97794921875	0		
0.005488139152526855	0.005226301193237305	0		0.455418212890625	-2.4569091796875	0		-0.8777938842773437	0.31216265869140625	0		-0.5351430053710937	-2.515025146484375	0		1.5957093505859374	-0.64606591796875	0		3.00518603515625	-0.7107130737304688	0		4.25899755859375	-0.4029486999511719	0		5.84415087890625	0.2758580627441406	0		-0.08601146697998047	5.969287109375	0		
0.00164962899684906	0.0024604489803314207	0		0.45155352783203123	-2.460677978515625	0		-0.8157136840820313	0.299810791015625	0		-0.4699300842285156	-2.510406982421875	0		1.5808487548828125	-0.6507440185546876	0		2.990271240234375	-0.7214007568359375	0		4.25512939453125	-0.4087441711425781	0		5.84434130859375	0.276015380859375	0		-0.08578152465820313	5.96948583984375	0		
0.0018359090089797973	0.002670593023300171	0		0.45172274780273436	-2.460470947265625	0		-0.8915222778320312	0.3007094421386719	0		-0.53665966796875	-2.498592041015625	0		1.5671029052734375	-0.6424193725585937	0		2.985326904296875	-0.7351658325195313	0		4.24733984375	-0.40549172973632813	0		5.84945703125	0.26814044189453123	0		-0.08555390167236328	5.96969677734375	0		
-0.002018615961074829	-0.0010734360218048096	0		0.4539054870605469	-2.458272216796875	0		-0.8153421020507813	0.30025189208984376	0		-0.5423779296875	-2.485315185546875	0		1.5672799072265624	-0.6422099609375	0		3.005385498046875	-0.7481452026367188	0		4.2573740234375	-0.4213894958496094	0		5.84471240234375	0.27636590576171877	0		-0.08435082244873048	5.967908203125	0		
-0.0018456070423126221	-8.46576988697052E-4	0		0.428109375	-2.452814453125	0		-0.876209716796875	0.2960328369140625	0		-0.5701201782226563	-2.47383349609375	0		1.567448974609375	-0.6419927978515625	0		2.9916083984375	-0.7418112182617187	0		4.2545	-0.4261617431640625	0		5.8669580078125	0.28435836791992186	0		-0.06903358459472657	5.98	0		
0.0023518939018249514	0.003348285913467407	0		0.4902731628417969	-2.45114404296875	0		-0.7950137329101562	0.2995392150878906	0		-0.5368652954101563	-2.46189697265625	0		1.567607177734375	-0.6417703247070312	0		3.00666650390625	-0.7527310791015625	0		4.2546591796875	-0.425953857421875	0		5.86712158203125	0.2845574951171875	0		-0.04989418792724609	5.974060546875	0		
-0.0015366380214691163	-3.8323301076889036E-4	0		0.4235021057128906	-2.440310791015625	0		-0.8758977661132813	0.29650494384765624	0		-0.5367291870117188	-2.461662109375	0		1.564715576171875	-0.6455180053710937	0		3.006810302734375	-0.7525125122070313	0		4.2596962890625	-0.4377855529785156	0		5.87627880859375	0.2856818542480469	0		-0.08377224731445312	5.968599609375	0		
-0.0014065730571746827	-1.5278799831867218E-4	0		0.481602783203125	-2.442604736328125	0		-0.8048055419921875	0.29209893798828124	0		-0.5445177612304688	-2.451358154296875	0		1.550798828125	-0.6501669311523437	0		2.979884765625	-0.758049560546875	0		4.25982470703125	-0.43757080078125	0		5.8814814453125	0.29384527587890624	0		-0.08362020111083984	5.96883056640625	0		
-0.008359259605407714	-0.0068639922142028804	0		0.39677255249023435	-2.43461474609375	0		-0.8697009887695313	0.29191259765625	0		-0.5423876342773437	-2.448149169921875	0		1.5509071044921876	-0.6499459228515625	0		3.001919677734375	-0.7660305786132813	0		4.264861328125	-0.4454021911621094	0		5.88551123046875	0.2850183410644531	0		-0.08251121520996094	5.96704736328125	0		
-0.0012081929445266724	2.9024198651313784E-4	0		0.4318995971679688	-2.429713623046875	0		-0.85557666015625	0.29600555419921876	0		-0.5702039184570312	-2.436678466796875	0		1.56503857421875	-0.6448578491210938	0		3.016978759765625	-0.7689541015625	0		4.2619306640625	-0.4471659851074219	0		5.8898251953125	0.3101870727539062	0		-0.08042913055419922	5.9652470703125	0		
0.01584724807739258	-6.552990078926087E-4	0		0.43599786376953126	-2.425542724609375	0		-0.8504752807617187	0.30016900634765625	0		-0.529125244140625	-2.434840087890625	0		1.5601573486328124	-0.6386071166992188	0		3.0070703125	-0.7656598510742187	0		4.2780126953125	-0.4451075439453125	0		5.894962890625	0.31834262084960935	0		-0.0823390121459961	5.96747265625	0		
0.0029333150386810303	0.004657804012298584	0		0.4810448913574219	-2.42475244140625	0		-0.8595065307617188	0.29244677734375	0		-0.550958251953125	-2.420446044921875	0		1.5510987548828126	-0.6493297729492188	0		2.9859853515625	-0.7792745361328125	0		4.2709541015625	-0.45584893798828124	0		5.89500341796875	0.3185372314453125	0		-0.08229708862304687	5.9676689453125	0		
-0.059113677978515626	-0.0016002600193023681	0		0.425107666015625	-2.419064697265625	0		-0.8594931640625	0.2926287536621094	0		-0.558852294921875	-2.410192138671875	0		1.547076904296875	-0.6531098022460937	0		3.037934326171875	-0.7865582885742187	0		4.28788623046875	-0.46481607055664065	0		5.9040166015625	0.31864309692382814	0		-0.09738652801513673	5.9569873046875	0		
-0.001101881980895996	0.0010435680150985718	0		0.4530802307128906	-2.4211494140625	0		-0.849588134765625	0.28370425415039063	0		-0.5838866577148437	-2.412800537109375	0		1.5511011962890624	-0.6489761352539063	0		3.02287841796875	-0.7912501831054688	0		4.29192822265625	-0.4586772766113281	0		5.9040029296875	0.3188212890625	0		-0.08132128143310546	5.96700927734375	0		
-0.0011357450485229492	0.0011924660205841063	0		0.43113638305664065	-2.411801025390625	0		-0.8396323852539063	0.28276025390625	0		-0.5518327026367188	-2.4039423828125	0		1.5510694580078126	-0.6488220825195312	0		3.03101806640625	-0.7721641235351563	0		4.29189599609375	-0.45851416015625	0		5.921111328125	0.33483587646484375	0		-0.06526740264892578	5.97901318359375	0		
0.002854624032974243	0.005284523010253906	0		0.45217413330078127	-2.403860107421875	0		-0.8337155151367187	0.2788304443359375	0		-0.5848018188476563	-2.39652001953125	0		1.557090087890625	-0.6417404174804687	0		3.035822998046875	-0.7890650634765625	0		4.2918525390625	-0.458364501953125	0		5.9210732421875	0.3359936218261719	0		-0.08145013427734375	5.96728564453125	0		
0.008699344635009766	-0.006664361000061035	0		0.4221448669433594	-2.403482421875	0		-0.8337644653320313	0.2789293212890625	0		-0.5498697509765625	-2.400734130859375	0		1.5509847412109374	-0.64857080078125	0		3.0588525390625	-0.7811469116210937	0		4.2877548828125	-0.4641941223144531	0		5.926095703125	0.34409365844726564	0		-0.04649462127685547	5.97207470703125	0		
0.018668581008911132	-0.00567633581161499	0		0.4411709594726563	-2.39857177734375	0		-0.8388421020507812	0.27504495239257815	0		-0.5598245239257813	-2.393571533203125	0		1.546915283203125	-0.6524430541992188	0		3.051802490234375	-0.7829788818359374	0		4.30071923828125	-0.46419509887695315	0		5.93013427734375	0.3531877746582031	0		-0.04756896209716797	5.9741611328125	0		
-0.0043193039894104	-0.001420982003211975	0		0.41521783447265626	-2.393284912109375	0		-0.8279511108398437	0.2659862976074219	0		-0.5577968139648437	-2.390546875	0		1.55284326171875	-0.6584313354492187	0		3.0607587890625	-0.7859780883789063	0		4.28769970703125	-0.46398348999023437	0		5.9300966796875	0.35230010986328125	0		-0.080728271484375	5.966505859375	0		
0.008629979133605957	-0.006519138813018799	0		0.4282142333984375	-2.396378173828125	0		-0.8949660034179687	0.26559539794921877	0		-0.6246716918945312	-2.37893505859375	0		1.55891748046875	-0.6504482421875	0		3.0867978515625	-0.7821558227539063	0		4.31272607421875	-0.46113720703125	0		5.9480771484375	0.3512293701171875	0		-0.07882447052001954	5.96450537109375	0		
